<svg xmlns="http://www.w3.org/2000/svg" viewBox="309 308 461 461">
  <path fill="#E30313" d="M379.76,346.32l30.7,29.19,22.7,65.37v-94.56h59.47l32.56,32.53v355.24h-56.87l-32.43-32.66-24.44-70.58v103.23h-59.47l-31.69-31.66v-356.11h59.47ZM369.77,353.26h-42.54v339.19h41.24l1.3-1.3v-208.63l70.33,209.93h42.54v-339.19h-42.54v209.93l-70.33-209.93ZM414.04,408.78l-8.28-25.12-27.3-26.93,8.28,25.12,27.3,26.93ZM518.24,405.31v-16.05l-28.65-28.19v16.05l28.65,28.19ZM518.24,432.2v-16.05l-28.65-28.19v16.05l28.65,28.19ZM427.93,449.55l-9.16-25.97-27.28-26.95,8.31,25.09,28.14,27.83ZM518.24,459.1v-16.05l-28.65-28.19v16.05l28.65,28.19ZM433.15,481.65v-16.92l-27.35-27.32c-.67-.13-.52.79-.44,1.3.47,3.12,6.41,20.68,7.95,23.29,3.58,6.05,14.93,13.94,19.84,19.64ZM518.24,485.99v-16.05l-28.65-28.19v16.05l28.65,28.19ZM518.24,512.01v-15.18l-28.65-28.19v16.05c8.89,7.32,17.13,19.21,26.04,26.03.87.67,1.1,1.67,2.61,1.3ZM433.15,507.68v-16.05l-14.77-13.87c3.88,8.01,5.07,23.25,12.16,28.62.87.66,1.09,1.68,2.61,1.3ZM518.24,538.91v-15.18c0-2.05-25.16-25.68-28.65-29.06v16.92c8.89,7.32,17.13,19.21,26.04,26.03.87.67,1.1,1.67,2.61,1.3ZM518.24,565.8v-16.05l-28.65-28.19v16.92c8.89,7.32,17.13,19.21,26.04,26.03.87.67,1.1,1.67,2.61,1.3ZM376.72,543.24v16.05l16.07,16.04c.67.13.52-.79.44-1.3-.43-2.81-6.09-19.75-7.46-22.05-1.62-2.75-6.6-6.38-9.05-8.74ZM518.24,592.69v-16.05l-28.65-28.19v16.92c8.89,7.32,17.13,19.21,26.04,26.03.87.67,1.1,1.67,2.61,1.3ZM376.72,570.14v16.92l27.35,27.32c1.22-5.59-2.2-17.76-5.25-22.51-4.39-6.82-16.5-15.17-22.1-21.73ZM518.24,619.58v-16.05l-28.65-28.19v16.92c8.89,7.32,17.13,19.21,26.04,26.03.87.67,1.1,1.67,2.61,1.3ZM404.5,641.27v-16.05l-27.78-27.33v16.05l27.78,27.33ZM518.24,646.48v-16.05l-28.65-28.19v16.05l28.65,28.19ZM404.5,668.16v-16.92l-27.78-27.33v16.92l27.78,27.33ZM518.24,673.37v-16.05l-28.65-28.19v16.05l28.65,28.19ZM404.5,695.06v-16.92l-27.78-27.33v16.92l27.78,27.33ZM518.24,700.26v-16.05l-28.65-28.19v16.05l28.65,28.19ZM404.5,721.95v-16.92l-27.78-27.33v16.92l27.78,27.33ZM518.23,721.94l-.45-11.26-28.19-27.78.44,12.13c8.71,7.24,16.84,18.9,25.59,25.61.87.67,1.1,1.68,2.61,1.29ZM372.38,727.15l-27.35-27.76h-17.8l27.35,27.76h17.8ZM399.29,727.15l-27.35-27.76h-16.93l27.35,27.76h16.93ZM485.25,727.15l-27.35-27.76h-14.33l27.35,27.76h14.33ZM512.16,727.15l-27.35-27.76h-16.93l27.35,27.76h16.93Z"/>
  <path fill="#E30313" d="M648.47,623.05h-30.82l-16.93-16.92v-13.45c-1.99-.93-6.95,3.64-6.95,4.77v88.92h1.29c1.59-.57,5.66-6.64,5.66-8.24v-20.39h31.69c3.76,5.06,15.36,12.53,16.08,18.63,3.77,32.07-16.08,62.42-50.7,59.33-21.6-1.93-49.41-28.31-51.67-49.88,1.79-33.47-2.75-70.06-.14-103.16,2.48-31.42,37.52-46.42,64.88-34.4,13.89,6.1,37.6,31.45,37.6,47.45v27.33ZM624.16,599.63v-19.52c0-3.39-5.05-12.31-7.37-15.19-21.54-26.77-61.9-12.69-64.68,21.28-2.53,30.96.97,66.59,1.1,97.77,6.89,28.77,44.06,38.42,63.12,14.97,2.26-2.78,7.83-12.39,7.83-15.6v-19.52h-16.06l-1.3,1.3v15.61c0,2.03-4.67,8.51-6.51,9.98-12.76,10.13-30.37.48-30.85-15.15,1.67-28.56-2.11-59.4,0-87.69,1.1-14.71,15.47-25.1,28.98-16.74,2.19,1.35,8.39,8.56,8.39,10.7v16.48l1.3,1.3h16.06ZM641.53,609.17v-14.31c0-2.1-3.31-10.6-4.49-12.86-1.71-3.27-4.56-6.72-7.23-9.26-.94,3.13,1.06,6.69,1.29,9.99.37,5.4-.41,10.89.19,16.29l10.24,10.15ZM599.77,585.67c-.17-8.98-9.53-12.46-17.28-9.45-1.06,1.49,9.15,9.88,10.4,11.73l6.88-2.28ZM576.41,584.45v13.88c0,.7,9.7,9.91,10.41,9.1.07-4.7-.65-9.28,1.58-13.61l-9.84-10.67-2.16,1.3ZM636.32,616.11l-9.98-10.41h-14.33c.17,1.82,8.42,10.41,9.12,10.41h15.19ZM586.83,634.33v-16.05l-10.42-9.98v16.92c0,.7,9.71,9.91,10.42,9.11ZM586.83,661.22v-16.05l-10.42-9.98v16.05l10.42,9.98ZM586.83,687.25v-15.18l-10.42-9.98v16.05c0,.7,9.71,9.91,10.42,9.11ZM641.53,688.98v-12.58c0-.7-8.6-8.93-10.42-9.11v12.58c0,.7,9.71,9.91,10.42,9.11ZM629.38,688.12l-4.24,11.53,10.72,10.16c1.56-.37,4.27-8.77,4.62-10.73l-11.11-10.96ZM611.14,711.55c-.98,1.43,9.38,10.39,10.97,12.04l8.98-7.28-10.96-10.78-8.99,6.03ZM585.96,725.41c-3.26-4.08-6.87-8.24-12.15-9.53-1.63,1.62,10,9.8,12.15,9.53ZM591.17,718.48c-.99.82,8.12,9.88,9.29,10.23,1.97.58,14.19.15,14.13-1.99l-10.95-10.67-12.47,2.44Z"/>
  <path fill="#E30313" d="M648.2,409.44c-.14.23-.93.21-1.3.34l-.15,1.16,8.66,9.58c-1.15,9.22,1.62,22.53.02,31.21-.18.99-.3,1.75-1.42,2.05l-5.53.12c-1.16,20.35,4.03,41.21-6.79,59.57-12.46,21.13-39.78,28.31-61.52,16.93-8.19-4.29-26.05-22.43-29.95-30.8-5.44-11.66-5.63-44.09-4.09-57.32.84-7.19,5.12-15.05,9.18-20.92-14.61-19.84-13.32-52.39,6.81-68.07,33.62-26.18,83.68,7.97,86.4,45.49.13,1.83.28,9.72-.31,10.67ZM624.16,386.23c-.24-33.72-43.21-48.13-64.23-21.23-9.73,12.45-10.56,34.11-2.47,47.54,1.18,1.96,6.82,7.68,6.82,8.83-5.01,6.05-9.29,11.39-11.08,19.33-2.22,9.86-2.06,35.98.68,45.69,6.52,23.17,35.04,32.94,54.93,19.42,24.29-16.52,12.68-49.36,15.34-74.02l1.42-2.05,5.52-.12v-17.35h-6.95s0-6.94,0-6.94h-16.06c-2.14,1.64-1.14,4.56-1.3,6.94-11.25-.92-25.57,3.58-33.37-7-11.18-15.16.06-43.13,21.19-35.92,8.75,2.99,10.54,8.98,13.48,16.89h16.06ZM641.52,397.5c-.95-9.77-5.28-19.76-13.01-26.02l3.04,16.47,9.96,9.56ZM583.99,375.93c-2.57.38-7.03,5.33-6.74,8.1.26,2.51,8.2,8.34,10.01,10.86l8.22-9.04c-2.56-1.97-8.57-10.36-11.49-9.93ZM600.63,392.37c-7.14,1.26-7.37,7.76-6.86,13.82,6.66.66,7.62-.31,6.95-6.95h5.21s-5.3-6.87-5.3-6.87ZM625.47,392.3h-15.19c3.59,10.37,12.14,5.56,19.52,6.96,2.7.51,3.75,4.72,6.53,3.02l-10.85-9.98ZM586.83,405.31c1.15-1.05-9.07-10.39-10.41-11.27-.22,5.87,4.55,10.97,10.41,11.27ZM648.47,441.75v-19.52l-10.42-9.98v19.52l10.42,9.98ZM641.53,474.71v-16.05c0-.7-8.6-8.94-10.42-9.11v15.18l10.42,9.98ZM640.66,499.86c.3-4.11,1.87-10.17.7-14.13-.62-2.11-8.24-8.19-10.23-10.15l-1.62,14.12c1.04,1.31,10.07,11.31,11.16,10.17ZM629.06,499.31c-.65-.59-3.33-2.51-4.01-2.04l-6.03,8.99,11.63,10.96,6.33-9.12c-2.82-2.33-5.44-6.51-7.92-8.79ZM612.59,511.27l-10.12,5.52,11.53,10.68,10.14-5.47-11.56-10.72ZM604.19,529.36c1.04-.92-8.71-10.46-10.38-10.91-1.62-.43-3.74.75-5.68.58-3.86-.34-7.85-1.42-11.72-1.81,6.08,9.07,17.31,12.12,27.78,12.13Z"/>
  <path fill="#E30313" d="M739.07,560.29c11.34,11.18,17.97,17.36,19.56,34.68,2.94,31.97-.97,69.61-1.15,101.86-8.49,35.39-50.06,48.14-77.34,23.4-15.03-13.63-23.46-24.35-24.76-45.53-1.58-25.91-1.65-63.55,0-89.42,1.98-31,26.85-49.42,57.37-42.5,13.04,2.96,17.6,8.91,26.32,17.51ZM692.54,548.67c-16.18,2.21-29.35,17.96-30.21,34.01,2.01,29.99-2.59,63.24.05,92.84,3.78,42.48,63.42,45.36,71.82,4.13-1.92-32.08,3.35-68.85.22-100.4-1.99-20.07-22.53-33.22-41.88-30.58ZM747.44,580.55c-1.61-4.34-4.89-8.63-8.67-11.28.48,5.09,5.14,8.21,8.67,11.28ZM751.79,611.78v-16.05l-10.42-9.98v16.05l10.42,9.98ZM751.79,638.67v-16.05l-10.42-9.98v16.05l10.42,9.98ZM741.37,639.54v16.05l10.42,9.98v-16.05c0-.61-7.25-7.53-8.43-8.87-.52-.59.06-1.65-1.99-1.11ZM751.79,691.59v-16.05c0-.7-8.6-8.94-10.42-9.11v12.58c0,.26-.8.93-.84,1.77l.77,1.73c1.39.8,9.35,10.36,10.49,9.08ZM738.35,689.85l-5.55,10.67,10.64,10.11c1.63-.34,6.07-8.71,5.61-10.63-.25-1.04-9.76-10.38-10.7-10.15ZM717.97,710.71c-1.54,2.22,8.36,10.18,10.13,12.01,1.23.31,9.42-4.58,9.75-5.66.74-2.44-8.17-9.45-10.1-11.5l-9.78,5.15ZM706.21,726.29c3.75.67,9.05-.48,13.02,0l.88-1.73c-3.7-2.75-7.25-9.58-12.15-9.63-3.68-.04-8.46,1.88-12.6.96-1.26,1.13,8.4,9.97,10.85,10.41Z"/>
  <path fill="#E30313" d="M606.8,429.6v51.62c0,.32-2.59,4.87-3.09,5.59-8.57,12.14-27.11,9.78-32.68-3.68-2.56-6.2-2.43-34.83-.08-41.2,1.97-5.33,9.69-12.33,15.45-12.33h20.4ZM600.72,446.94c1.18-1.7-6.93-9.77-8.42-10.22-4.17-1.24-9.57.36-12.4,3.72l10.96,10.76,9.86-4.26ZM586.83,473.84v-16.05l-10.42-9.98v16.05l10.42,9.98ZM600.72,453.89c-2.13-.52-6.95,4.26-6.95,5.64v26.46h1.29c1.59-.57,5.66-6.64,5.66-8.24v-23.86ZM586.82,487.72c2.33-2.4-8.43-11.36-10.41-13.01-.58,6.35,3.95,12.52,10.41,13.01Z"/>
  <path fill="#E30313" d="M695.13,566.01c11.06-1.75,20.96,5.39,21.97,16.67,2.69,30.03-2.04,64.08-.09,94.54-5.87,21.38-35.39,18.95-37.31-3.39-2.51-29.3,1.88-62.22.11-91.91,1.66-7.95,7-14.59,15.33-15.91ZM710.12,583.14c1.31-1.51-6.89-9.76-8.42-10.22-4.17-1.24-9.57.36-12.4,3.72l10.96,10.71,9.86-4.22ZM697.09,610.04v-15.18l-10.42-9.98v16.05c0,.7,9.71,9.91,10.42,9.11ZM710.99,590.09c-2.27-.81-6.95,3.03-6.95,4.77v88.92c2.88-.21,6.95-7.05,6.95-9.11v-84.58ZM697.09,636.93v-15.18c0-1.1-8.16-9.97-10.42-9.98v16.05c0,.7,9.71,9.91,10.42,9.11ZM697.09,663.83v-15.18c0-1.1-8.16-9.97-10.42-9.98v16.05c0,.7,9.71,9.91,10.42,9.11ZM697.09,684.65c-.39-3.05.8-7.65-.45-10.4-.42-.92-9.16-9.59-9.96-8.69-.79,8.42-.07,18.59,10.41,19.08Z"/>
</svg>
